<svg viewBox="0 0 38 6" fill="none" xmlns="http://www.w3.org/2000/svg">
  <path
    d="M35.9489 4.34319H32.6784L32.2315 5.21481H30.8979L33.5873 0H34.9878L37.7591 5.21481H36.4107L35.9489 4.34319ZM35.405 3.30768L34.3025 1.25155L33.2148 3.30768H35.405Z"
    fill="currentColor" />
  <path
    d="M30.2112 0V5.21481H28.9448V3.07674H20.3031V5.21481H19.0366V0H20.3031V1.98908H28.9448V0H30.2112Z"
    fill="currentColor" />
  <path
    d="M12.8926 5.21481V0H16.0215C17.2879 0 18.0701 0.752423 18.0701 1.91458C18.0701 3.12144 17.2879 3.88876 16.0215 3.88876H14.159L14.1739 5.21481H12.8926ZM14.159 2.80855H16.0215C16.461 2.80855 16.7366 2.51056 16.7366 1.92948C16.7366 1.37075 16.4684 1.08021 16.0215 1.08021H14.159V2.80855Z"
    fill="currentColor" />
  <path
    d="M7.54883 5.21481V0H8.81528V4.1346H12.0708V5.21481H7.54883Z"
    fill="currentColor" />
  <path
    d="M5.05091 4.34319H1.78048L1.3335 5.21481H0L2.68935 0H4.0899L6.8612 5.21481H5.5128L5.05091 4.34319ZM4.50708 3.30768L3.40452 1.25155L2.31686 3.30768H4.50708Z"
    fill="currentColor" />
</svg>
