<svg
  width="16"
  height="16"
  viewBox="0 0 16 16"
  fill="none"
  xmlns="http://www.w3.org/2000/svg">
  <path
    d="M13.4 3.8001C13.5591 3.8001 13.7117 3.86331 13.8243 3.97583C13.9368 4.08836 14 4.24097 14 4.4001V12.8001C14 12.9592 13.9368 13.1118 13.8243 13.2244C13.7117 13.3369 13.5591 13.4001 13.4 13.4001H2.6C2.44087 13.4001 2.28826 13.3369 2.17574 13.2244C2.06321 13.1118 2 12.9592 2 12.8001V3.2001C2 3.04097 2.06321 2.88836 2.17574 2.77583C2.28826 2.66331 2.44087 2.6001 2.6 2.6001H7.0484L8.2484 3.8001H10.4V5.0001H11.6V3.8001H13.4ZM11.6 8.6001H10.4V9.8001H9.2V11.6001H11.6V8.6001ZM10.4 7.4001H9.2V8.6001H10.4V7.4001ZM11.6 6.2001H10.4V7.4001H11.6V6.2001ZM10.4 5.0001H9.2V6.2001H10.4V5.0001Z"
    fill="currentColor" />
</svg>
