<svg
  width="31"
  height="34"
  viewBox="0 0 31 34"
  fill="none"
  xmlns="http://www.w3.org/2000/svg">
  <path
    d="M15.7551 1.43496L15.4953 1.27722L15.2357 1.43514L1.51015 9.78331L1.26997 9.92939L1.26997 10.2105L1.26997 23.7182L1.26997 23.9973L1.50749 24.1438L15.1596 32.5642L15.4203 32.725L15.682 32.5658L29.5021 24.1557L29.7422 24.0096L29.7422 23.7286L29.7422 10.2105L29.7422 9.92917L29.5017 9.78314L15.7551 1.43496ZM15.4955 3.31459L27.9546 10.9041L27.9546 23.0354L15.4338 30.6852L3.03657 23.0368L3.03657 10.9041L15.4955 3.31459Z"
    fill="#6FCB94"
    stroke="#6FCB94" />
  <path
    d="M15.1177 31.7051L15.8633 31.7051L15.8633 2.23363L15.1177 2.23363L15.1177 31.7051Z"
    fill="#6FCB94" />
  <path
    d="M21.7549 27.5771L22.5005 27.5771L22.5005 6.35069L21.7549 6.35069L21.7549 27.5771Z"
    fill="#6FCB94" />
  <path
    d="M8.42821 27.5771L9.17383 27.5771L9.17383 6.35069L8.42821 6.35069L8.42821 27.5771Z"
    fill="#6FCB94" />
  <path
    d="M8.9863 28.0199L28.9824 17.4092L28.6281 16.7645L8.63201 27.3752L8.9863 28.0199Z"
    fill="#6FCB94" />
  <path
    d="M2.31555 24.0033L28.981 10.8994L28.6474 10.2441L1.98204 23.348L2.31555 24.0033Z"
    fill="#6FCB94" />
  <path
    d="M28.5503 23.8603L28.8838 23.2051L2.21839 10.1012L1.88491 10.7565L28.5503 23.8603Z"
    fill="#6FCB94" />
  <path
    d="M21.9426 27.9494L22.2969 27.3047L2.30075 16.694L1.94645 17.3387L21.9426 27.9494Z"
    fill="#6FCB94" />
  <path
    d="M2.32614 17.4134L22.3223 6.80273L21.968 6.15806L1.97185 16.7688L2.32614 17.4134Z"
    fill="#6FCB94" />
  <path
    d="M28.6042 17.3448L28.9585 16.7002L8.96238 6.08951L8.60811 6.73413L28.6042 17.3448Z"
    fill="#6FCB94" />
</svg>
