<svg
  width="33"
  height="32"
  viewBox="0 0 33 32"
  fill="none"
  xmlns="http://www.w3.org/2000/svg">
  <path
    d="M22.5 26.8002V22.0002H10.5V26.8002H8.1V20.8002C8.1 20.4819 8.22643 20.1767 8.45147 19.9517C8.67652 19.7266 8.98174 19.6002 9.3 19.6002H23.7C24.0183 19.6002 24.3235 19.7266 24.5485 19.9517C24.7736 20.1767 24.9 20.4819 24.9 20.8002V26.8002H22.5ZM10.5 5.2002V10.0002H22.5V5.2002H24.9V11.2002C24.9 11.5185 24.7736 11.8237 24.5485 12.0487C24.3235 12.2738 24.0183 12.4002 23.7 12.4002H9.3C8.98174 12.4002 8.67652 12.2738 8.45147 12.0487C8.22643 11.8237 8.1 11.5185 8.1 11.2002V5.2002H10.5ZM4.5 12.4002L9.3 16.0002L4.5 19.6002V12.4002ZM28.5 12.4002V19.6002L23.7 16.0002L28.5 12.4002Z"
    fill="#969696"
    fill-opacity="0.4" />
</svg>
