<svg
  width="33"
  height="32"
  viewBox="0 0 33 32"
  fill="none"
  xmlns="http://www.w3.org/2000/svg">
  <path
    d="M5.7 5.2002H27.3C27.6183 5.2002 27.9235 5.32662 28.1485 5.55167C28.3736 5.77671 28.5 6.08194 28.5 6.4002V25.6002C28.5 25.9185 28.3736 26.2237 28.1485 26.4487C27.9235 26.6738 27.6183 26.8002 27.3 26.8002H5.7C5.38174 26.8002 5.07652 26.6738 4.85147 26.4487C4.62643 26.2237 4.5 25.9185 4.5 25.6002V6.4002C4.5 6.08194 4.62643 5.77671 4.85147 5.55167C5.07652 5.32662 5.38174 5.2002 5.7 5.2002V5.2002ZM6.9 7.6002V24.4002H26.1V7.6002H6.9ZM12.9 14.8002H15.3V17.2002H12.9V19.6002H10.5V17.2002H8.1V14.8002H10.5V12.4002H12.9V14.8002ZM17.7 14.8002H24.9V17.2002H17.7V14.8002Z"
    fill="#969696"
    fill-opacity="0.4" />
</svg>
