<svg
  width="24"
  height="24"
  viewBox="0 0 24 24"
  fill="none"
  xmlns="http://www.w3.org/2000/svg">
  <path
    d="M5.25 16.5H18.75V7.5H5.25V16.5ZM3.75 6.75C3.75 6.33579 4.08579 6 4.5 6H19.5C19.9142 6 20.25 6.33579 20.25 6.75V17.25C20.25 17.6642 19.9142 18 19.5 18H4.5C4.08579 18 3.75 17.6642 3.75 17.25V6.75ZM9.75 10.5C9.75 10.0858 9.41421 9.75 9 9.75C8.58579 9.75 8.25 10.0858 8.25 10.5C8.25 10.9142 8.58579 11.25 9 11.25C9.41421 11.25 9.75 10.9142 9.75 10.5ZM11.25 10.5C11.25 11.7427 10.2426 12.75 9 12.75C7.75736 12.75 6.75 11.7427 6.75 10.5C6.75 9.25736 7.75736 8.25 9 8.25C10.2426 8.25 11.25 9.25736 11.25 10.5ZM9.00135 15C8.27627 15 7.62105 15.293 7.1452 15.7688L6.08454 14.7082C6.8302 13.9625 7.86247 13.5 9.00135 13.5C10.1402 13.5 11.1725 13.9625 11.9182 14.7082L10.8575 15.7688C10.3817 15.293 9.72643 15 9.00135 15ZM12.75 9.75V14.25H14.25V9.75H12.75ZM15.75 9.75V14.25H17.25V9.75H15.75Z"
    fill="#969696" />
</svg>
