<svg
  width="24"
  height="24"
  viewBox="0 0 24 24"
  fill="none"
  xmlns="http://www.w3.org/2000/svg">
  <path
    d="M18.75 9V12H17.25V9.75H13.5V6H6.75V18H11.25V19.5H5.99505C5.58371 19.5 5.25 19.167 5.25 18.7561V5.24385C5.25 4.84148 5.58653 4.5 6.00166 4.5H14.2476L18.75 9ZM13.3393 14.4952C13.3685 13.9498 13.7893 13.5062 14.3325 13.4485L14.9855 13.3792C15.0631 13.3709 15.1361 13.3384 15.1942 13.2863L15.6826 12.8474C16.0889 12.4823 16.7002 12.4664 17.1251 12.8096L17.6359 13.2224C17.6965 13.2713 17.7712 13.3 17.8491 13.3042L18.5048 13.3393C19.0502 13.3685 19.4938 13.7893 19.5515 14.3325L19.6208 14.9855C19.6291 15.0631 19.6616 15.1361 19.7137 15.1942L20.1526 15.6826C20.5177 16.0889 20.5336 16.7002 20.1904 17.1251L19.7776 17.6359C19.7287 17.6965 19.7 17.7712 19.6958 17.8491L19.6607 18.5048C19.6315 19.0502 19.2106 19.4938 18.6675 19.5515L18.0145 19.6208C17.9369 19.6291 17.8639 19.6616 17.8058 19.7137L17.3174 20.1526C16.9111 20.5177 16.2998 20.5336 15.8749 20.1904L15.3641 19.7776C15.3035 19.7287 15.2288 19.7 15.1509 19.6958L14.4952 19.6607C13.9498 19.6315 13.5062 19.2106 13.4485 18.6675L13.3792 18.0145C13.3709 17.9369 13.3384 17.8639 13.2863 17.8058L12.8474 17.3174C12.4823 16.9111 12.4664 16.2997 12.8096 15.8749L13.2224 15.3641C13.2713 15.3035 13.3 15.2288 13.3042 15.1509L13.3393 14.4952ZM18.7727 15.7727L17.9773 14.9773L16.125 16.8295L15.0227 15.7273L14.2273 16.5227L16.125 18.4205L18.7727 15.7727Z"
    fill="#969696" />
</svg>
