<svg
  width="14"
  height="17"
  viewBox="0 0 14 17"
  fill="none"
  xmlns="http://www.w3.org/2000/svg">
  <path
    d="M5.557 7.25C6.007 7.25 6.3715 7.5875 6.36325 8C6.36325 8.4125 6.00775 8.75 5.557 8.75C5.1145 8.75 4.75 8.4125 4.75 8C4.75 7.5875 5.10625 7.25 5.557 7.25ZM8.443 7.25C8.89375 7.25 9.25 7.5875 9.25 8C9.25 8.4125 8.89375 8.75 8.443 8.75C8.0005 8.75 7.63675 8.4125 7.63675 8C7.63675 7.5875 7.99225 7.25 8.443 7.25ZM12.1683 0.5C13.0405 0.5 13.75 1.2245 13.75 2.12225V16.25L12.0917 14.7537L11.158 13.8717L10.1702 12.9342L10.5798 14.3915H1.83175C0.9595 14.3915 0.25 13.667 0.25 12.7692V2.12225C0.25 1.2245 0.9595 0.5 1.83175 0.5H12.1675H12.1683ZM9.19075 10.7847C10.8955 10.73 11.5518 9.58775 11.5518 9.58775C11.5518 7.052 10.4403 4.99625 10.4403 4.99625C9.33025 4.1465 8.27275 4.16975 8.27275 4.16975L8.16475 4.29575C9.4765 4.70525 10.0855 5.29625 10.0855 5.29625C9.3693 4.89274 8.57998 4.63575 7.7635 4.54025C7.24558 4.48175 6.72245 4.48679 6.20575 4.55525C6.15925 4.55525 6.12025 4.5635 6.0745 4.571C5.8045 4.595 5.14825 4.697 4.32325 5.0675C4.03825 5.201 3.868 5.29625 3.868 5.29625C3.868 5.29625 4.5085 4.67375 5.89675 4.26425L5.8195 4.16975C5.8195 4.16975 4.76275 4.1465 3.652 4.997C3.652 4.997 2.54125 7.052 2.54125 9.58775C2.54125 9.58775 3.18925 10.7292 4.894 10.7847C4.894 10.7847 5.179 10.4307 5.4115 10.1315C4.43125 9.8315 4.0615 9.2015 4.0615 9.2015C4.0615 9.2015 4.138 9.257 4.27675 9.33575C4.28425 9.34325 4.29175 9.3515 4.3075 9.359C4.33075 9.3755 4.354 9.383 4.37725 9.39875C4.57 9.509 4.76275 9.59525 4.93975 9.6665C5.25625 9.7925 5.63425 9.9185 6.0745 10.0055C6.73399 10.1348 7.41206 10.1373 8.0725 10.013C8.45719 9.94434 8.8325 9.83081 9.19075 9.67475C9.46075 9.572 9.7615 9.422 10.078 9.20975C10.078 9.20975 9.6925 9.8555 8.6815 10.1473C8.91325 10.4465 9.1915 10.7847 9.1915 10.7847H9.19075Z"
    fill="#6FCB94" />
</svg>
