<svg
  width="16"
  height="16"
  viewBox="0 0 16 16"
  fill="none"
  xmlns="http://www.w3.org/2000/svg">
  <path
    d="M13.4 6.2V13.3958C13.4005 13.4746 13.3856 13.5527 13.3559 13.6257C13.3263 13.6987 13.2825 13.7652 13.2272 13.8213C13.1719 13.8774 13.1061 13.9221 13.0335 13.9527C12.9609 13.9834 12.883 13.9995 12.8042 14H3.19578C3.03786 14 2.88641 13.9373 2.77469 13.8257C2.66298 13.7141 2.60013 13.5627 2.59998 13.4048V2.5952C2.59998 2.273 2.86818 2 3.19878 2H9.19998V5.6C9.19998 5.75913 9.26319 5.91174 9.37571 6.02426C9.48823 6.13679 9.64085 6.2 9.79998 6.2H13.4ZM13.4 5H10.4V2.0018L13.4 5ZM5.59998 5V6.2H7.39998V5H5.59998ZM5.59998 7.4V8.6H10.4V7.4H5.59998ZM5.59998 9.8V11H10.4V9.8H5.59998Z"
    fill="currentColor" />
</svg>
