<svg
  width="24"
  height="24"
  viewBox="0 0 24 24"
  fill="none"
  xmlns="http://www.w3.org/2000/svg">
  <path
    d="M12.9 12H15.6L12 15.6L8.39999 12H11.1V8.4H12.9V12ZM14.7 4.8H5.69999V19.2H18.3V8.4H14.7V4.8ZM3.89999 3.8928C3.89999 3.3996 4.30229 3 4.79909 3H15.6L20.1 7.5V20.0937C20.1008 20.2119 20.0784 20.3291 20.0339 20.4386C19.9894 20.5481 19.9238 20.6478 19.8409 20.7319C19.7579 20.8161 19.6591 20.8831 19.5502 20.9291C19.4414 20.9751 19.3245 20.9992 19.2063 21H4.79369C4.55733 20.9984 4.33111 20.9038 4.16389 20.7367C3.99667 20.5697 3.90188 20.3436 3.89999 20.1072V3.8928Z"
    fill="#969696" />
</svg>
