<svg
  width="24"
  height="24"
  viewBox="0 0 24 24"
  fill="none"
  xmlns="http://www.w3.org/2000/svg">
  <path
    d="M12.3726 5.6999H20.1C20.3387 5.6999 20.5676 5.79472 20.7364 5.96351C20.9052 6.13229 21 6.36121 21 6.5999V19.1999C21 19.4386 20.9052 19.6675 20.7364 19.8363C20.5676 20.0051 20.3387 20.0999 20.1 20.0999H3.9C3.66131 20.0999 3.43239 20.0051 3.2636 19.8363C3.09482 19.6675 3 19.4386 3 19.1999V4.7999C3 4.56121 3.09482 4.33229 3.2636 4.16351C3.43239 3.99472 3.66131 3.8999 3.9 3.8999H10.5726L12.3726 5.6999ZM4.8 5.6999V18.2999H19.2V7.4999H11.6274L9.8274 5.6999H4.8ZM8.4 9.2999H15.6V13.7135C15.6 14.5163 15.1986 15.2651 14.5317 15.7106L12 17.3981L9.4683 15.7106C9.13962 15.4914 8.87015 15.1944 8.68379 14.846C8.49743 14.4976 8.39995 14.1086 8.4 13.7135V9.2999ZM10.2 13.7135C10.2 13.9142 10.2999 14.1014 10.4673 14.213L12 15.2345L13.5327 14.213C13.6149 14.1582 13.6824 14.0839 13.729 13.9968C13.7756 13.9096 13.8 13.8123 13.8 13.7135V11.0999H10.2V13.7135Z"
    fill="#969696" />
</svg>
