<svg
  width="74"
  height="89"
  viewBox="0 0 74 89"
  fill="none"
  xmlns="http://www.w3.org/2000/svg">
  <path
    d="M37 0L0 22.2V66.465L37 88.665L74 66.465V22.201L37 0ZM70 61.801L59 55.201V31.201L39 19.201V5.866L70 24.466V61.801ZM37 22.666L53.112 32.333L37 42L20.888 32.333L37 22.666ZM19 35.865L35 45.465V64.8L19 55.2V35.865ZM39 45.465L55 35.865V55.2L39 64.8V45.465ZM35 5.866V19.201L15 31.201V55.201L4 61.801V24.465L35 5.866ZM5.888 65.333L17 58.666L37 70.666L57 58.666L68.112 65.333L37 84L5.888 65.333Z"
    fill="currentColor"
    fill-opacity="0.1" />
</svg>
