<svg
  width="74"
  height="89"
  viewBox="0 0 74 89"
  fill="none"
  xmlns="http://www.w3.org/2000/svg">
  <path
    d="M37 0L0 22.2V66.46L37 88.66L74 66.46V22.2L37 0ZM57.29 16.83L50 21.2V12.46L57.29 16.83ZM24 12.46V21.2L16.72 16.83L24 12.46ZM4 24.46L12.84 19.16L24 25.86V36.8L15.33 42L4 35.2V24.46ZM4 39.86L11.45 44.33L4 48.8V39.86ZM28 39.06V10.06L35 5.86V43.2L4 61.8V53.46L28 39.06ZM16.72 71.83L24 67.46V76.2L16.72 71.83ZM37 84L28 78.6V65.06L37 59.66L46 65.06V78.6L37 84ZM50 76.2V67.46L57.29 71.83L50 76.2ZM61.17 69.5L37 55L12.84 69.5L5.88 65.33L37 46.66L68.12 65.33L61.17 69.5ZM70 61.8L39 43.2V5.86L46 10.06V39.06L70 53.46V61.8ZM70 48.8L62.55 44.33L70 39.86V48.8ZM58.67 42L50 36.8V25.86L61.17 19.16L70 24.46V35.2L58.67 42Z"
    fill="currentColor"
    fill-opacity="0.1" />
</svg>
