<svg
  width="74"
  height="89"
  viewBox="0 0 74 89"
  fill="none"
  xmlns="http://www.w3.org/2000/svg">
  <path
    d="M37 0L0 22.2V66.46L37 88.66L74 66.46V22.2L37 0ZM68.12 23.33L47.83 35.5L39 30.2V5.86L68.12 23.33ZM46 47.4L40.88 44.33L46 41.26V47.4ZM28 41.26L33.12 44.33L28 47.4V41.26ZM39 40.8V34.86L43.95 37.83L39 40.8ZM35 40.8L30.05 37.83L35 34.86V40.8ZM35 47.86V53.8L30.05 50.83L35 47.86ZM39 47.86L43.95 50.83L39 53.8V47.86ZM35 5.86V30.2L26.17 35.5L5.88 23.33L35 5.86ZM4 26.86L24 38.86V49.8L4 61.8V26.86ZM5.88 65.33L26.17 53.16L35 58.46V82.8L5.88 65.33ZM39 82.8V58.46L47.83 53.16L68.12 65.33L39 82.8ZM70 61.8L50 49.8V38.86L70 26.86V61.8Z"
    fill="currentColor"
    fill-opacity="0.1" />
</svg>
