<svg
  width="24"
  height="24"
  viewBox="0 0 24 24"
  fill="none"
  xmlns="http://www.w3.org/2000/svg">
  <path
    d="M9.29993 3.0027V3H19.1981C19.6949 3 20.0999 3.4095 20.0999 3.8928V20.1072C20.0997 20.3441 20.0054 20.5712 19.8378 20.7386C19.6703 20.906 19.4431 21 19.2062 21H4.79362C4.67543 20.9992 4.55856 20.9751 4.44969 20.9291C4.34081 20.8831 4.24206 20.8161 4.15907 20.7319C4.07608 20.6478 4.01048 20.5481 3.96602 20.4386C3.92155 20.3291 3.89909 20.2119 3.89992 20.0937V8.4L9.29993 3.0027ZM6.44692 8.4H9.29993V5.547L6.44692 8.4ZM11.0999 4.8V9.3C11.0999 9.53869 11.0051 9.76761 10.8363 9.9364C10.6675 10.1052 10.4386 10.2 10.1999 10.2H5.69992V19.2H18.2999V4.8H11.0999Z"
    fill="#969696" />
</svg>
