<svg
  width="40"
  height="40"
  viewBox="0 0 40 40"
  fill="none"
  xmlns="http://www.w3.org/2000/svg">
  <path
    d="M33.5 6.5V33.5C33.5 33.8978 33.342 34.2794 33.0607 34.5607C32.7794 34.842 32.3978 35 32 35H8C7.60218 35 7.22064 34.842 6.93934 34.5607C6.65804 34.2794 6.5 33.8978 6.5 33.5V6.5C6.5 6.10218 6.65804 5.72064 6.93934 5.43934C7.22064 5.15804 7.60218 5 8 5H32C32.3978 5 32.7794 5.15804 33.0607 5.43934C33.342 5.72064 33.5 6.10218 33.5 6.5ZM9.5 26V32H30.5V26H9.5ZM24.5 27.5H27.5V30.5H24.5V27.5Z"
    fill="#969696" />
</svg>
