<svg
  width="16"
  height="16"
  viewBox="0 0 16 16"
  fill="none"
  xmlns="http://www.w3.org/2000/svg">
  <path
    d="M12.8 3.8001H3.2V12.2001L8.7752 6.6237C8.88772 6.51122 9.0403 6.44803 9.1994 6.44803C9.3585 6.44803 9.51108 6.51122 9.6236 6.6237L12.8 9.8061V3.8001ZM2 3.1959C2.0011 3.03832 2.06414 2.88751 2.17551 2.77603C2.28688 2.66455 2.43763 2.60135 2.5952 2.6001H13.4048C13.7336 2.6001 14 2.8671 14 3.1959V12.8043C13.9989 12.9619 13.9359 13.1127 13.8245 13.2242C13.7131 13.3356 13.5624 13.3988 13.4048 13.4001H2.5952C2.43729 13.3999 2.2859 13.3371 2.17429 13.2254C2.06269 13.1137 2 12.9622 2 12.8043V3.1959ZM5.6 7.4001C5.28174 7.4001 4.97652 7.27367 4.75147 7.04863C4.52643 6.82358 4.4 6.51836 4.4 6.2001C4.4 5.88184 4.52643 5.57661 4.75147 5.35157C4.97652 5.12653 5.28174 5.0001 5.6 5.0001C5.91826 5.0001 6.22348 5.12653 6.44853 5.35157C6.67357 5.57661 6.8 5.88184 6.8 6.2001C6.8 6.51836 6.67357 6.82358 6.44853 7.04863C6.22348 7.27367 5.91826 7.4001 5.6 7.4001Z"
    fill="currentColor" />
</svg>
