<svg viewBox="0 0 464 46" fill="none" xmlns="http://www.w3.org/2000/svg">
  <path
    opacity="0.5"
    d="M10.5131 44.5368H0.231579C0.103681 44.5368 0 44.6405 0 44.7684C0 44.8963 0.103681 45 0.231579 45H460C462.209 45 464 43.2091 464 41V5C464 2.79086 462.209 1 460 1H437.926C437.43 1 436.938 1.09246 436.475 1.27265L381.325 22.7489C380.862 22.9291 380.37 23.0215 379.874 23.0215H362.053C361.293 23.0215 360.548 22.8049 359.907 22.3971L327.232 1.62441C326.591 1.21659 325.846 1 325.086 1H291.727C290.845 1 289.988 1.29141 289.289 1.82891L262.803 22.1926C262.104 22.7301 261.254 23.0215 260.372 23.0215H216.323C215.661 23.0215 215.02 23.1857 214.437 23.4993L186.929 38.3042C186.346 38.6178 185.695 38.782 185.033 38.782H166.823C166.154 38.782 165.495 38.6138 164.907 38.2929L137.827 23.5106C137.24 23.1897 136.581 23.0215 135.911 23.0215H112.308C111.412 23.0215 110.542 22.7208 109.837 22.1676L83.9663 1.85392C83.2617 1.3007 82.3919 1 81.4961 1H50.9186C49.7391 1 48.6197 1.52056 47.8597 2.42254L13.572 43.1143C12.812 44.0163 11.6926 44.5368 10.5131 44.5368Z"
    fill="url(#paint0_linear_346_1558)"
    fill-opacity="0.06" />
  <path
    opacity="0.6"
    d="M0 45H8.62753C11.0011 45 13.2521 43.946 14.772 42.123L46.6596 3.87702C48.1796 2.05398 50.4306 1 52.8041 1H80.0903C81.896 1 83.6486 1.6109 85.0631 2.73335L108.741 21.5225C110.155 22.6449 111.908 23.2558 113.714 23.2558H134.871C136.223 23.2558 137.552 23.5982 138.736 24.2511L163.999 38.1886C165.182 38.8415 166.512 39.1839 167.863 39.1839H184.007C185.342 39.1839 186.656 38.8496 187.829 38.2116L213.537 24.2281C214.71 23.5901 216.013 23.2558 217.348 23.2558C229.407 23.2558 251.34 23.2558 258.999 23.2558C260.776 23.2558 262.487 22.6637 263.891 21.5729L288.202 2.68288C289.605 1.59212 291.332 1 293.11 1H323.901C325.435 1 326.936 1.44066 328.226 2.26951L358.913 21.9863C360.203 22.8152 361.704 23.2558 363.237 23.2558H379.107C380.11 23.2558 381.104 23.0673 382.037 22.7L435.763 1.55577C436.696 1.18853 437.69 1 438.693 1L464 1"
    stroke="#3EE089"
    stroke-width="2" />
  <defs>
    <linearGradient
      id="paint0_linear_346_1558"
      x1="232"
      y1="17.617"
      x2="232"
      y2="45"
      gradientUnits="userSpaceOnUse">
      <stop stop-color="#CFD1D3" />
      <stop offset="1" stop-color="#E4E5E7" stop-opacity="0" />
    </linearGradient>
  </defs>
</svg>
