<svg viewBox="0 0 122 47" fill="none" xmlns="http://www.w3.org/2000/svg">
  <path
    d="M 18.129041,19.56595 H 14.114379 L 13.072791,16.522088 H 7.4906914 L 6.4491039,19.56595 H 2.5355665 L 8.0974414,4.5084382 H 12.567166 Z M 12.132329,13.761375 10.281741,8.3613006 8.4311539,13.761375 Z m 19.046502,-2.083174 h -0.3236 q -0.232587,-0.0809 -0.748325,-0.12135 -0.515737,-0.04045 -0.859562,-0.04045 -0.778663,0 -1.3753,0.101125 -0.596638,0.101125 -1.284288,0.343825 V 19.56595 H 22.947257 V 8.2096131 h 3.640499 v 1.6685625 q 1.203388,-1.031475 2.093288,-1.3651875 0.8899,-0.343825 1.638225,-0.343825 0.192137,0 0.434837,0.010112 0.2427,0.010112 0.424725,0.030337 z m 10.835151,8.191124 q -1.486537,0 -2.720262,-0.353937 -1.223613,-0.353938 -2.133738,-1.09215 -0.900012,-0.738213 -1.395525,-1.8607 -0.495512,-1.122488 -0.495512,-2.62925 0,-1.587662 0.52585,-2.740487 0.535962,-1.152825 1.486537,-1.9112629 0.920238,-0.7179875 2.123625,-1.0517 1.203388,-0.3337125 2.497788,-0.3337125 1.162937,0 2.14385,0.2528125 0.980912,0.2528125 1.830362,0.6573125 V 11.910788 H 45.36122 q -0.212363,-0.182025 -0.515738,-0.424725 -0.293262,-0.2427 -0.7281,-0.475287 -0.414612,-0.222475 -0.910125,-0.36405 -0.495512,-0.151688 -1.152825,-0.151688 -1.4562,0 -2.244975,0.93035 -0.778662,0.920238 -0.778662,2.5079 0,1.638225 0.798887,2.487675 0.809,0.84945 2.285425,0.84945 0.68765,0 1.233725,-0.151688 0.556188,-0.1618 0.920238,-0.374162 0.343825,-0.20225 0.60675,-0.424725 0.262925,-0.222475 0.4854,-0.434838 h 0.515737 v 3.104538 q -0.859562,0.4045 -1.800025,0.637087 -0.93035,0.2427 -2.06295,0.2427 z M 62.547024,19.56595 h -3.660725 v -5.632662 q 0,-0.68765 -0.07079,-1.365187 -0.07079,-0.68765 -0.2427,-1.01125 -0.20225,-0.374163 -0.596637,-0.546075 -0.384275,-0.171913 -1.082038,-0.171913 -0.495512,0 -1.01125,0.1618 -0.505625,0.1618 -1.102262,0.515738 v 8.049549 h -3.6405 V 3.8309007 h 3.6405 v 5.6326624 q 0.9708,-0.7584375 1.8607,-1.1629375 0.900012,-0.4045 1.992162,-0.4045 1.840475,0 2.87195,1.071925 1.041588,1.0719254 1.041588,3.2056624 z m 9.844123,0 h -3.6405 V 8.2096131 h 3.6405 z M 72.492272,6.5916131 h -3.84275 V 3.8309007 h 3.84275 z m 17.630755,1.618 -4.378713,11.3563369 h -4.1259 L 77.27004,8.2096131 h 3.852862 l 2.62925,7.8068499 2.598912,-7.8068499 z M 98.642413,19.56595 h -3.6405 V 8.2096131 h 3.6405 z M 98.743538,6.5916131 h -3.84275 V 3.8309007 h 3.84275 z M 114.80686,15.9659 q 0,1.759575 -1.57755,2.841613 -1.57755,1.071925 -4.31804,1.071925 -1.51688,0 -2.7506,-0.28315 -1.23373,-0.28315 -1.98205,-0.626975 v -2.9933 h 0.33371 q 0.27304,0.192137 0.62698,0.424725 0.36405,0.222475 1.02136,0.4854 0.5663,0.232587 1.28429,0.4045 0.71798,0.1618 1.5371,0.1618 1.07192,0 1.58766,-0.232588 0.51574,-0.2427 0.51574,-0.707875 0,-0.414612 -0.30338,-0.596637 -0.30337,-0.192138 -1.15282,-0.36405 -0.4045,-0.09101 -1.10227,-0.192138 -0.68765,-0.111237 -1.25395,-0.262925 -1.54721,-0.4045 -2.29553,-1.25395 -0.74833,-0.859562 -0.74833,-2.133737 0,-1.638225 1.54721,-2.7202624 1.55733,-1.09215 4.24725,-1.09215 1.27418,0 2.43712,0.262925 1.17305,0.2528125 1.83036,0.546075 v 2.8719504 h -0.31349 q -0.809,-0.556188 -1.85059,-0.900013 -1.03147,-0.353937 -2.09328,-0.353937 -0.87979,0 -1.48654,0.2427 -0.59664,0.2427 -0.59664,0.68765 0,0.4045 0.27304,0.616862 0.27304,0.212363 1.28429,0.424725 0.55618,0.111238 1.19327,0.222475 0.6472,0.101125 1.2944,0.262925 1.43598,0.374163 2.12363,1.183162 0.68765,0.798888 0.68765,2.002275 z m 12.53404,3.498925 q -0.58652,0.151688 -1.24383,0.232588 -0.65732,0.09101 -1.60789,0.09101 -2.12363,0 -3.16521,-0.859562 -1.03148,-0.859563 -1.03148,-2.942738 v -5.309062 h -1.49665 V 8.2096131 h 1.49665 V 4.9635007 h 3.6405 v 3.2461124 h 3.40791 v 2.4674499 h -3.40791 v 4.024775 q 0,0.596637 0.0101,1.041587 0.0101,0.44495 0.1618,0.798888 0.14158,0.353937 0.49552,0.5663 0.36405,0.20225 1.0517,0.20225 0.28315,0 0.73821,-0.12135 0.46517,-0.12135 0.6472,-0.222475 h 0.30337 z"
    transform="scale(0.94634078,1.0567018)"
    fill="white" />
  <path
    d="M46.1636 36.8404V34.2949H56.2772V36.8404H52.7772V45.9313H49.6636V36.8404H46.1636Z"
    fill="#6CCC93" />
  <path
    d="M38.7321 45.9313V34.2949H41.8911V43.3858H46.5957V45.9313H38.7321Z"
    fill="#6CCC93" />
  <path
    d="M34.0715 34.2949H37.2306V41.7495C37.2306 42.6358 37.0185 43.4029 36.5943 44.0506C36.1738 44.6945 35.5867 45.1926 34.8329 45.5449C34.0791 45.8934 33.2041 46.0676 32.2079 46.0676C31.2041 46.0676 30.3253 45.8934 29.5715 45.5449C28.8178 45.1926 28.2306 44.6945 27.8102 44.0506C27.3935 43.4029 27.1852 42.6358 27.1852 41.7495V34.2949H30.3443V41.4767C30.3443 41.8366 30.4238 42.1586 30.5829 42.4426C30.742 42.723 30.9617 42.9426 31.242 43.1017C31.5261 43.2608 31.8481 43.3404 32.2079 43.3404C32.5715 43.3404 32.8935 43.2608 33.1738 43.1017C33.4541 42.9426 33.6738 42.723 33.8329 42.4426C33.992 42.1586 34.0715 41.8366 34.0715 41.4767V34.2949Z"
    fill="#6CCC93" />
  <path
    d="M17.4732 45.9313H14.0641L17.905 34.2949H22.2232L26.0641 45.9313H22.655L20.1095 37.4995H20.0186L17.4732 45.9313ZM16.8368 41.3404H23.2459V43.704H16.8368V41.3404Z"
    fill="#6CCC93" />
  <path
    d="M6.80414 34.2949L9.19051 42.4995H9.28142L11.6678 34.2949H15.236L11.3951 45.9313H7.07687L3.23596 34.2949H6.80414Z"
    fill="#6CCC93" />
  <path
    d="M64.2256 39.9316C64.2256 36.8129 66.7539 34.2846 69.8727 34.2846H115.755C118.874 34.2846 121.402 36.8129 121.402 39.9316C121.402 43.0504 118.874 45.5787 115.755 45.5787H69.8727C66.7539 45.5787 64.2256 43.0504 64.2256 39.9316Z"
    stroke="#7F948D"
    stroke-width="0.705882" />
  <path
    d="M113.873 42.0462H109.836L109.284 43.1081H107.638L110.958 36.7551H112.687L116.108 43.1081H114.443L113.873 42.0462ZM113.202 40.7847L111.841 38.2798L110.498 40.7847H113.202Z"
    fill="#7F948D" />
  <path
    d="M106.932 36.7551V43.1081H105.332V40.5034H94.414V43.1081H92.814V36.7551H94.414V39.1783H105.332V36.7551H106.932Z"
    fill="#7F948D" />
  <path
    d="M85.7551 43.1081V36.7551H89.5943C91.1483 36.7551 92.1081 37.6718 92.1081 39.0876C92.1081 40.5578 91.1483 41.4926 89.5943 41.4926H87.3091L87.3274 43.1081H85.7551ZM87.3091 40.1766H89.5943C90.1336 40.1766 90.4718 39.8136 90.4718 39.1057C90.4718 38.425 90.1428 38.0711 89.5943 38.0711H87.3091V40.1766Z"
    fill="#7F948D" />
  <path
    d="M78.6963 43.1081V36.7551H80.2778V41.7921H84.3433V43.1081H78.6963Z"
    fill="#7F948D" />
  <path
    d="M75.7555 42.0462H71.7179L71.1661 43.1081H69.5198L72.84 36.7551H74.569L77.9904 43.1081H76.3257L75.7555 42.0462ZM75.0841 40.7847L73.7229 38.2798L72.3801 40.7847H75.0841Z"
    fill="#7F948D" />
</svg>
