<svg viewBox="0 0 45 50" fill="none" xmlns="http://www.w3.org/2000/svg">
  <path
    d="M22.884 1.59902L22.462 1.3427L22.0401 1.5993L1.45174 14.1216L1.06145 14.359L1.06145 14.8158L1.06145 35.0774L1.06145 35.5309L1.44742 35.7689L21.9256 48.3995L22.3493 48.6609L22.7745 48.4021L43.5047 35.787L43.8948 35.5496L43.8948 35.0929L43.8948 14.8158L43.8948 14.3586L43.504 14.1213L22.884 1.59902ZM22.4623 4.54508L41.0883 15.8913L41.0883 34.018L22.3699 45.4544L3.83635 34.0203L3.83635 15.8913L22.4623 4.54508Z"
    fill="#6FCB94"
    stroke="#6FCB94"
    stroke-width="1.625" />
  <path
    d="M21.8959 47.0581L23.0143 47.0581L23.0143 2.85093L21.8959 2.85093L21.8959 47.0581Z"
    fill="#6FCB94" />
  <path
    d="M31.8506 40.8662L32.969 40.8662L32.969 9.02652L31.8506 9.02652L31.8506 40.8662Z"
    fill="#6FCB94" />
  <path
    d="M11.8611 40.8662L12.9795 40.8662L12.9795 9.02652L11.8611 9.02652L11.8611 40.8662Z"
    fill="#6FCB94" />
  <path
    d="M12.6987 41.5298L42.6929 25.6138L42.1614 24.6468L12.1672 40.5628L12.6987 41.5298Z"
    fill="#6FCB94" />
  <path
    d="M2.69293 35.5051L42.691 15.8494L42.1908 14.8664L2.19267 34.5222L2.69293 35.5051Z"
    fill="#6FCB94" />
  <path
    d="M32.1329 41.4238L32.6643 40.4568L2.67012 24.5407L2.13867 25.5078L32.1329 41.4238Z"
    fill="#6FCB94" />
</svg>
