<svg viewBox="0 0 122 47" fill="none" xmlns="http://www.w3.org/2000/svg">
  <path
    d="M25.8656 9.58363H21.0843C20.948 8.79954 20.6965 8.10494 20.3301 7.49982C19.9636 6.88619 19.5076 6.3663 18.9622 5.94016C18.4167 5.51403 17.7946 5.19442 17.0957 4.98136C16.4054 4.75977 15.6596 4.64897 14.8585 4.64897C13.4352 4.64897 12.1738 5.00692 11.0744 5.72283C9.97495 6.43022 9.11416 7.46999 8.492 8.84215C7.86984 10.2058 7.55876 11.872 7.55876 13.8407C7.55876 15.8436 7.86984 17.5311 8.492 18.9032C9.12268 20.2669 9.98348 21.2981 11.0744 21.997C12.1738 22.6873 13.4309 23.0325 14.8457 23.0325C15.6298 23.0325 16.3627 22.9302 17.0446 22.7257C17.7349 22.5126 18.3528 22.2015 18.8982 21.7924C19.4522 21.3833 19.9167 20.8805 20.2917 20.2839C20.6752 19.6873 20.9394 19.0055 21.0843 18.2385L25.8656 18.264C25.6866 19.5083 25.2988 20.676 24.7022 21.7669C24.1142 22.8578 23.3429 23.8208 22.3883 24.6561C21.4338 25.4828 20.3173 26.1305 19.0389 26.5993C17.7605 27.0595 16.3414 27.2896 14.7818 27.2896C12.4806 27.2896 10.4267 26.7569 8.61984 25.6916C6.81302 24.6262 5.38973 23.0879 4.34995 21.0765C3.31018 19.0652 2.79029 16.6532 2.79029 13.8407C2.79029 11.0197 3.31444 8.60778 4.36274 6.60494C5.41103 4.59357 6.83859 3.05522 8.64541 1.98988C10.4522 0.924537 12.4977 0.391867 14.7818 0.391867C16.2392 0.391867 17.5943 0.596412 18.8471 1.0055C20.1 1.41459 21.2164 2.01545 22.1965 2.80806C23.1767 3.59215 23.9821 4.55522 24.6127 5.69727C25.2519 6.83079 25.6696 8.12624 25.8656 9.58363ZM38.5698 27.3152C36.6522 27.3152 34.9902 26.8933 33.584 26.0495C32.1777 25.2058 31.0868 24.0254 30.3112 22.5083C29.5442 20.9913 29.1607 19.2186 29.1607 17.1902C29.1607 15.1618 29.5442 13.3848 30.3112 11.8592C31.0868 10.3336 32.1777 9.14897 33.584 8.30522C34.9902 7.46147 36.6522 7.0396 38.5698 7.0396C40.4874 7.0396 42.1493 7.46147 43.5556 8.30522C44.9618 9.14897 46.0485 10.3336 46.8155 11.8592C47.5911 13.3848 47.9789 15.1618 47.9789 17.1902C47.9789 19.2186 47.5911 20.9913 46.8155 22.5083C46.0485 24.0254 44.9618 25.2058 43.5556 26.0495C42.1493 26.8933 40.4874 27.3152 38.5698 27.3152ZM38.5953 23.6078C39.6351 23.6078 40.5044 23.3223 41.2033 22.7512C41.9022 22.1717 42.422 21.3961 42.763 20.4245C43.1124 19.4529 43.2871 18.3706 43.2871 17.1774C43.2871 15.9757 43.1124 14.889 42.763 13.9174C42.422 12.9373 41.9022 12.1575 41.2033 11.5779C40.5044 10.9984 39.6351 10.7086 38.5953 10.7086C37.53 10.7086 36.6436 10.9984 35.9362 11.5779C35.2374 12.1575 34.7132 12.9373 34.3638 13.9174C34.0229 14.889 33.8524 15.9757 33.8524 17.1774C33.8524 18.3706 34.0229 19.4529 34.3638 20.4245C34.7132 21.3961 35.2374 22.1717 35.9362 22.7512C36.6436 23.3223 37.53 23.6078 38.5953 23.6078ZM59.1937 27.2768C57.6511 27.2768 56.2704 26.8805 55.0517 26.0879C53.8329 25.2953 52.8698 24.1447 52.1625 22.6362C51.4551 21.1277 51.1014 19.2953 51.1014 17.139C51.1014 14.9572 51.4593 13.1163 52.1752 11.6163C52.8997 10.1078 53.8755 8.96999 55.1028 8.20295C56.3301 7.42738 57.698 7.0396 59.2065 7.0396C60.3571 7.0396 61.3031 7.23562 62.0446 7.62766C62.786 8.01119 63.3741 8.47567 63.8088 9.02113C64.2434 9.55806 64.5801 10.0652 64.8187 10.5424H65.0105V0.749822H69.6511V26.9316H65.1V23.8379H64.8187C64.5801 24.3152 64.2349 24.8223 63.7832 25.3592C63.3315 25.8876 62.7349 26.3393 61.9934 26.7143C61.2519 27.0893 60.3187 27.2768 59.1937 27.2768ZM60.4849 23.4799C61.465 23.4799 62.3002 23.2157 62.9906 22.6873C63.6809 22.1504 64.2051 21.4047 64.563 20.4501C64.921 19.4956 65.1 18.3833 65.1 17.1135C65.1 15.8436 64.921 14.7399 64.563 13.8024C64.2136 12.8649 63.6937 12.1362 63.0034 11.6163C62.3215 11.0964 61.4821 10.8365 60.4849 10.8365C59.4536 10.8365 58.5929 11.1049 57.9025 11.6419C57.2122 12.1788 56.6923 12.9203 56.3429 13.8663C55.9934 14.8123 55.8187 15.8947 55.8187 17.1135C55.8187 18.3407 55.9934 19.4359 56.3429 20.399C56.7008 21.3535 57.225 22.1078 57.9153 22.6618C58.6142 23.2072 59.4707 23.4799 60.4849 23.4799ZM83.2757 27.3152C81.307 27.3152 79.6067 26.9061 78.1749 26.0879C76.7516 25.2612 75.6564 24.0936 74.8894 22.585C74.1223 21.068 73.7388 19.2825 73.7388 17.2285C73.7388 15.2086 74.1223 13.4359 74.8894 11.9103C75.6649 10.3762 76.7473 9.18306 78.1365 8.33079C79.5257 7.46999 81.1578 7.0396 83.0328 7.0396C84.2431 7.0396 85.3851 7.23562 86.459 7.62766C87.5414 8.01119 88.4959 8.60778 89.3226 9.41744C90.1578 10.2271 90.8141 11.2583 91.2914 12.5112C91.7686 13.7555 92.0073 15.2385 92.0073 16.96V18.3791H75.9121V15.2598H87.5712C87.5627 14.3734 87.3709 13.585 86.9959 12.8947C86.6209 12.1958 86.0968 11.6461 85.4235 11.2456C84.7587 10.845 83.9831 10.6447 83.0968 10.6447C82.1507 10.6447 81.3198 10.8748 80.6039 11.335C79.888 11.7868 79.3297 12.3833 78.9291 13.1248C78.5371 13.8578 78.3368 14.6632 78.3283 15.541V18.264C78.3283 19.4061 78.5371 20.3862 78.9547 21.2044C79.3723 22.014 79.9561 22.6362 80.7061 23.0708C81.4561 23.497 82.334 23.71 83.3397 23.71C84.013 23.71 84.6223 23.6163 85.1678 23.4288C85.7132 23.2328 86.1862 22.9473 86.5868 22.5723C86.9874 22.1973 87.2899 21.7328 87.4945 21.1788L91.8155 21.6646C91.5428 22.8066 91.0229 23.8038 90.2558 24.6561C89.4973 25.4998 88.5257 26.1561 87.3411 26.6248C86.1564 27.085 84.8013 27.3152 83.2757 27.3152ZM99.2846 7.29528L103.248 14.5439L107.275 7.29528H112.171L106.252 17.1135L112.273 26.9316H107.403L103.248 19.862L99.1312 26.9316H94.2221L100.205 17.1135L94.3755 7.29528H99.2846Z"
    fill="white" />
  <path
    d="M46.1636 36.8404V34.2949H56.2772V36.8404H52.7772V45.9313H49.6636V36.8404H46.1636Z"
    fill="#6CCC93" />
  <path
    d="M38.7321 45.9313V34.2949H41.8911V43.3858H46.5957V45.9313H38.7321Z"
    fill="#6CCC93" />
  <path
    d="M34.0715 34.2949H37.2306V41.7495C37.2306 42.6358 37.0185 43.4029 36.5943 44.0506C36.1738 44.6945 35.5867 45.1926 34.8329 45.5449C34.0791 45.8934 33.2041 46.0676 32.2079 46.0676C31.2041 46.0676 30.3253 45.8934 29.5715 45.5449C28.8178 45.1926 28.2306 44.6945 27.8102 44.0506C27.3935 43.4029 27.1852 42.6358 27.1852 41.7495V34.2949H30.3443V41.4767C30.3443 41.8366 30.4238 42.1586 30.5829 42.4426C30.742 42.723 30.9617 42.9426 31.242 43.1017C31.5261 43.2608 31.8481 43.3404 32.2079 43.3404C32.5715 43.3404 32.8935 43.2608 33.1738 43.1017C33.4541 42.9426 33.6738 42.723 33.8329 42.4426C33.992 42.1586 34.0715 41.8366 34.0715 41.4767V34.2949Z"
    fill="#6CCC93" />
  <path
    d="M17.4732 45.9313H14.0641L17.905 34.2949H22.2232L26.0641 45.9313H22.655L20.1095 37.4995H20.0186L17.4732 45.9313ZM16.8368 41.3404H23.2459V43.704H16.8368V41.3404Z"
    fill="#6CCC93" />
  <path
    d="M6.80414 34.2949L9.19051 42.4995H9.28142L11.6678 34.2949H15.236L11.3951 45.9313H7.07687L3.23596 34.2949H6.80414Z"
    fill="#6CCC93" />
  <path
    d="M64.2256 39.9316C64.2256 36.8129 66.7539 34.2846 69.8727 34.2846H115.755C118.874 34.2846 121.402 36.8129 121.402 39.9316C121.402 43.0504 118.874 45.5787 115.755 45.5787H69.8727C66.7539 45.5787 64.2256 43.0504 64.2256 39.9316Z"
    stroke="#7F948D"
    stroke-width="0.705882" />
  <path
    d="M113.873 42.0462H109.836L109.284 43.1081H107.638L110.958 36.7551H112.687L116.108 43.1081H114.443L113.873 42.0462ZM113.202 40.7847L111.841 38.2798L110.498 40.7847H113.202Z"
    fill="#7F948D" />
  <path
    d="M106.932 36.7551V43.1081H105.332V40.5034H94.414V43.1081H92.814V36.7551H94.414V39.1783H105.332V36.7551H106.932Z"
    fill="#7F948D" />
  <path
    d="M85.7551 43.1081V36.7551H89.5943C91.1483 36.7551 92.1081 37.6718 92.1081 39.0876C92.1081 40.5578 91.1483 41.4926 89.5943 41.4926H87.3091L87.3274 43.1081H85.7551ZM87.3091 40.1766H89.5943C90.1336 40.1766 90.4718 39.8136 90.4718 39.1057C90.4718 38.425 90.1428 38.0711 89.5943 38.0711H87.3091V40.1766Z"
    fill="#7F948D" />
  <path
    d="M78.6963 43.1081V36.7551H80.2778V41.7921H84.3433V43.1081H78.6963Z"
    fill="#7F948D" />
  <path
    d="M75.7555 42.0462H71.7179L71.1661 43.1081H69.5198L72.84 36.7551H74.569L77.9904 43.1081H76.3257L75.7555 42.0462ZM75.0841 40.7847L73.7229 38.2798L72.3801 40.7847H75.0841Z"
    fill="#7F948D" />
</svg>
