<svg
  width="61"
  height="74"
  viewBox="0 0 61 74"
  fill="none"
  xmlns="http://www.w3.org/2000/svg">
  <path
    d="M37 -7L0 15.2V59.46L37 81.66L74 59.46V15.2L37 -7ZM68.12 16.33L47.83 28.5L39 23.2V-1.14L68.12 16.33ZM46 40.4L40.88 37.33L46 34.26V40.4ZM28 34.26L33.12 37.33L28 40.4V34.26ZM39 33.8V27.86L43.95 30.83L39 33.8ZM35 33.8L30.05 30.83L35 27.86V33.8ZM35 40.86V46.8L30.05 43.83L35 40.86ZM39 40.86L43.95 43.83L39 46.8V40.86ZM35 -1.14V23.2L26.17 28.5L5.88 16.33L35 -1.14ZM4 19.86L24 31.86V42.8L4 54.8V19.86ZM5.88 58.33L26.17 46.16L35 51.46V75.8L5.88 58.33ZM39 75.8V51.46L47.83 46.16L68.12 58.33L39 75.8ZM70 54.8L50 42.8V31.86L70 19.86V54.8Z"
    fill="currentColor"
    fill-opacity="0.1" />
</svg>
