<svg
  width="20"
  height="20"
  viewBox="0 0 20 20"
  fill="none"
  xmlns="http://www.w3.org/2000/svg">
  <path
    d="M4 5.81013L1.56775 3.37863L2.629 2.31738L5.0605 4.74963H16.492C16.6089 4.74962 16.7242 4.77694 16.8287 4.82941C16.9331 4.88187 17.0239 4.95803 17.0937 5.0518C17.1635 5.14558 17.2104 5.25437 17.2307 5.3695C17.251 5.48463 17.2441 5.6029 17.2105 5.71488L15.4105 11.7149C15.3642 11.8694 15.2693 12.005 15.1398 12.1013C15.0104 12.1976 14.8534 12.2496 14.692 12.2496H5.5V13.7496H13.75V15.2496H4.75C4.55109 15.2496 4.36032 15.1706 4.21967 15.03C4.07902 14.8893 4 14.6985 4 14.4996V5.81013ZM5.5 6.24963V10.7496H14.134L15.484 6.24963H5.5ZM5.125 18.2496C4.82663 18.2496 4.54048 18.1311 4.3295 17.9201C4.11853 17.7091 4 17.423 4 17.1246C4 16.8263 4.11853 16.5401 4.3295 16.3291C4.54048 16.1182 4.82663 15.9996 5.125 15.9996C5.42337 15.9996 5.70952 16.1182 5.92049 16.3291C6.13147 16.5401 6.25 16.8263 6.25 17.1246C6.25 17.423 6.13147 17.7091 5.92049 17.9201C5.70952 18.1311 5.42337 18.2496 5.125 18.2496ZM14.125 18.2496C13.8266 18.2496 13.5405 18.1311 13.3295 17.9201C13.1185 17.7091 13 17.423 13 17.1246C13 16.8263 13.1185 16.5401 13.3295 16.3291C13.5405 16.1182 13.8266 15.9996 14.125 15.9996C14.4234 15.9996 14.7095 16.1182 14.9205 16.3291C15.1315 16.5401 15.25 16.8263 15.25 17.1246C15.25 17.423 15.1315 17.7091 14.9205 17.9201C14.7095 18.1311 14.4234 18.2496 14.125 18.2496Z"
    fill="currentColor" />
</svg>
