<svg
  width="33"
  height="32"
  viewBox="0 0 33 32"
  fill="none"
  xmlns="http://www.w3.org/2000/svg">
  <path
    d="M18.8999 18.7022V27.9998H6.8999C6.89953 26.5345 7.23461 25.0885 7.87946 23.7727C8.52431 22.4569 9.46183 21.3061 10.6202 20.4086C11.7785 19.5112 13.1269 18.8908 14.5621 18.595C15.9973 18.2992 17.4811 18.3359 18.8999 18.7022ZM16.4999 17.1998C12.5219 17.1998 9.2999 13.9778 9.2999 9.9998C9.2999 6.0218 12.5219 2.7998 16.4999 2.7998C20.4779 2.7998 23.6999 6.0218 23.6999 9.9998C23.6999 13.9778 20.4779 17.1998 16.4999 17.1998ZM25.4015 21.9998H29.7047V24.3998H25.4015L27.5963 26.5934L25.8995 28.2914L20.8079 23.1998L25.8995 18.1082L27.5963 19.8062L25.4015 21.9998Z"
    fill="#969696"
    fill-opacity="0.4" />
</svg>
