<svg
  width="32"
  height="32"
  viewBox="0 0 32 32"
  fill="none"
  xmlns="http://www.w3.org/2000/svg">
  <path
    d="M16 28C9.3724 28 4 22.6276 4 16C4 9.3724 9.3724 4 16 4C22.6276 4 28 9.3724 28 16C28 22.6276 22.6276 28 16 28ZM21.784 22.0912C23.2325 20.7182 24.1449 18.8744 24.3576 16.8899C24.5703 14.9055 24.0695 12.9101 22.9449 11.2613C21.8203 9.61253 20.1454 8.41804 18.2202 7.89182C16.295 7.36561 14.2453 7.54208 12.4384 8.3896L13.6084 10.4956C14.5215 10.0987 15.519 9.93535 16.511 10.0202C17.503 10.105 18.4584 10.4353 19.2909 10.9814C20.1234 11.5274 20.8069 12.2721 21.2798 13.1482C21.7528 14.0243 22.0003 15.0044 22 16H18.4L21.784 22.0912ZM19.5616 23.6104L18.3916 21.5044C17.4785 21.9013 16.481 22.0646 15.489 21.9799C14.497 21.8951 13.5416 21.5647 12.7091 21.0187C11.8766 20.4726 11.1931 19.7279 10.7202 18.8518C10.2472 17.9757 9.99973 16.9956 10 16H13.6L10.216 9.9088C8.76747 11.2818 7.85511 13.1256 7.64239 15.1101C7.42966 17.0945 7.93047 19.0899 9.05508 20.7387C10.1797 22.3875 11.8546 23.582 13.7798 24.1082C15.705 24.6344 17.7547 24.4579 19.5616 23.6104Z"
    fill="currentColor" />
</svg>
