<svg
  width="24"
  height="24"
  viewBox="0 0 24 24"
  fill="none"
  xmlns="http://www.w3.org/2000/svg">
  <path
    d="M17.0562 6.5713L18.3639 5.2636L19.6365 6.5362L18.3288 7.8439C19.621 9.46135 20.2448 11.5122 20.0722 13.5752C19.8995 15.6382 18.9435 17.5569 17.4004 18.937C15.8574 20.3172 13.8444 21.0542 11.775 20.9966C9.70555 20.939 7.73671 20.0912 6.27283 18.6273C4.80895 17.1634 3.96114 15.1946 3.90353 13.1251C3.84592 11.0557 4.58288 9.04271 5.96306 7.49966C7.34323 5.9566 9.26185 5.00057 11.3249 4.82792C13.3879 4.65527 15.4388 5.2791 17.0562 6.5713ZM12 19.2001C12.8273 19.2001 13.6466 19.0371 14.4109 18.7205C15.1753 18.4039 15.8698 17.9399 16.4548 17.3549C17.0398 16.7699 17.5038 16.0754 17.8204 15.311C18.1371 14.5467 18.3 13.7274 18.3 12.9001C18.3 12.0728 18.1371 11.2535 17.8204 10.4892C17.5038 9.72484 17.0398 9.03033 16.4548 8.44532C15.8698 7.86032 15.1753 7.39626 14.4109 7.07966C13.6466 6.76305 12.8273 6.6001 12 6.6001C10.3291 6.6001 8.72671 7.26385 7.54523 8.44532C6.36375 9.6268 5.7 11.2292 5.7 12.9001C5.7 14.571 6.36375 16.1734 7.54523 17.3549C8.72671 18.5363 10.3291 19.2001 12 19.2001ZM11.1 8.4001H12.9V13.8001H11.1V8.4001ZM8.4 2.1001H15.6V3.9001H8.4V2.1001Z"
    fill="#969696" />
</svg>
