<svg
  width="33"
  height="32"
  viewBox="0 0 33 32"
  fill="none"
  xmlns="http://www.w3.org/2000/svg">
  <path
    d="M6.5894 3.28914L28.7438 15.4739C28.8379 15.5257 28.9163 15.6018 28.971 15.6943C29.0256 15.7867 29.0544 15.8922 29.0544 15.9995C29.0544 16.1069 29.0256 16.2123 28.971 16.3048C28.9163 16.3973 28.8379 16.4733 28.7438 16.5251L6.5894 28.7099C6.49804 28.7602 6.39517 28.7858 6.29092 28.7842C6.18667 28.7826 6.08464 28.7538 5.99489 28.7008C5.90513 28.6477 5.83075 28.5722 5.77908 28.4816C5.7274 28.3911 5.70021 28.2886 5.7002 28.1843V3.81474C5.70021 3.71048 5.7274 3.60802 5.77908 3.51746C5.83075 3.42691 5.90513 3.35138 5.99489 3.29833C6.08464 3.24528 6.18667 3.21653 6.29092 3.21492C6.39517 3.2133 6.49804 3.23889 6.5894 3.28914ZM8.1002 17.1995V25.1399L24.7202 15.9995L8.1002 6.85914V14.7995H14.1002V17.1995H8.1002Z"
    fill="#969696"
    fill-opacity="0.4" />
</svg>
