<svg
  width="33"
  height="32"
  viewBox="0 0 33 32"
  fill="none"
  xmlns="http://www.w3.org/2000/svg">
  <path
    d="M8.5476 7.01202C10.7396 5.06727 13.5696 3.9954 16.5 4.00001C23.1276 4.00001 28.5 9.37242 28.5 16C28.5039 18.4527 27.7527 20.8471 26.3484 22.858L23.1 16H26.1C26.1 14.0912 25.5311 12.2258 24.4657 10.642C23.4004 9.05812 21.8872 7.82782 20.1192 7.1082C18.3513 6.38859 16.409 6.21234 14.5404 6.60197C12.6718 6.99159 10.9618 7.92941 9.6288 9.29562L8.5488 7.01322L8.5476 7.01202ZM24.4524 24.988C22.2604 26.9328 19.4304 28.0046 16.5 28C9.8724 28 4.5 22.6276 4.5 16C4.5 13.45 5.2956 11.086 6.6516 9.14201L9.9 16H6.9C6.89996 17.9088 7.46894 19.7742 8.53426 21.3581C9.59957 22.9419 11.1128 24.1722 12.8808 24.8918C14.6487 25.6114 16.591 25.7877 18.4596 25.3981C20.3282 25.0084 22.0382 24.0706 23.3712 22.7044L24.4512 24.9868L24.4524 24.988ZM12.3 18.4H18.9C19.0591 18.4 19.2117 18.3368 19.3243 18.2243C19.4368 18.1118 19.5 17.9591 19.5 17.8C19.5 17.6409 19.4368 17.4883 19.3243 17.3758C19.2117 17.2632 19.0591 17.2 18.9 17.2H14.1C13.3044 17.2 12.5413 16.8839 11.9787 16.3213C11.4161 15.7587 11.1 14.9957 11.1 14.2C11.1 13.4044 11.4161 12.6413 11.9787 12.0787C12.5413 11.5161 13.3044 11.2 14.1 11.2H15.3V10H17.7V11.2H20.7V13.6H14.1C13.9409 13.6 13.7883 13.6632 13.6757 13.7758C13.5632 13.8883 13.5 14.0409 13.5 14.2C13.5 14.3591 13.5632 14.5118 13.6757 14.6243C13.7883 14.7368 13.9409 14.8 14.1 14.8H18.9C19.6957 14.8 20.4587 15.1161 21.0213 15.6787C21.5839 16.2413 21.9 17.0044 21.9 17.8C21.9 18.5957 21.5839 19.3587 21.0213 19.9213C20.4587 20.4839 19.6957 20.8 18.9 20.8H17.7V22H15.3V20.8H12.3V18.4Z"
    fill="#969696"
    fill-opacity="0.4" />
</svg>
