<svg viewBox="0 0 24 24" fill="none" xmlns="http://www.w3.org/2000/svg">
  <path
    d="M12.3726 5.6999H20.1C20.3387 5.6999 20.5676 5.79472 20.7364 5.96351C20.9052 6.13229 21 6.36121 21 6.5999V19.1999C21 19.4386 20.9052 19.6675 20.7364 19.8363C20.5676 20.0051 20.3387 20.0999 20.1 20.0999H3.9C3.66131 20.0999 3.43239 20.0051 3.2636 19.8363C3.09482 19.6675 3 19.4386 3 19.1999V4.7999C3 4.56121 3.09482 4.33229 3.2636 4.16351C3.43239 3.99472 3.66131 3.8999 3.9 3.8999H10.5726L12.3726 5.6999ZM4.8 5.6999V18.2999H19.2V7.4999H11.6274L9.8274 5.6999H4.8ZM12.9 12.8999V16.4999H11.1V12.8999H8.4L12 9.2999L15.6 12.8999H12.9Z"
    fill="currentColor" />
</svg>
