<svg
  width="20"
  height="20"
  viewBox="0 0 20 20"
  fill="none"
  xmlns="http://www.w3.org/2000/svg">
  <path
    d="M10.617 3.27683L17.4045 15.1688C17.4671 15.2783 17.5 15.4026 17.5 15.5291C17.5 15.6556 17.4671 15.7799 17.4045 15.8895C17.342 15.999 17.2521 16.09 17.1438 16.1533C17.0354 16.2165 16.9126 16.2498 16.7875 16.2498H3.21251C3.08743 16.2498 2.96456 16.2165 2.85625 16.1533C2.74794 16.09 2.65799 15.999 2.59546 15.8895C2.53292 15.7799 2.5 15.6556 2.5 15.5291C2.5 15.4026 2.53292 15.2783 2.59546 15.1688L9.38295 3.27683C9.44549 3.16728 9.53544 3.0763 9.64375 3.01305C9.75207 2.9498 9.87493 2.9165 10 2.9165C10.1251 2.9165 10.2479 2.9498 10.3562 3.01305C10.4646 3.0763 10.5545 3.16728 10.617 3.27683V3.27683ZM9.28748 12.6462V14.0877H10.7125V12.6462H9.28748ZM9.28748 7.60117V11.2048H10.7125V7.60117H9.28748Z"
    fill="#FFC800" />
</svg>
